<svg version="1.1" id="Layer_1" xmlns="http://www.w3.org/2000/svg" xmlns:xlink="http://www.w3.org/1999/xlink" x="0px" y="0px"
	 width="100%" viewBox="0 0 500 500" enable-background="new 0 0 500 500" xml:space="preserve">
<path fill="#462B45" opacity="1.000000" stroke="none" 
	d="
M328.000000,501.000000 
	C218.666687,501.000000 109.833382,501.000000 1.000058,501.000000 
	C1.000039,334.333405 1.000039,167.666794 1.000019,1.000148 
	C167.666565,1.000099 334.333130,1.000099 500.999756,1.000049 
	C500.999847,167.666519 500.999847,334.333038 500.999939,500.999786 
	C443.500000,501.000000 386.000000,501.000000 328.000000,501.000000 
M173.885574,355.432556 
	C176.762436,355.848846 179.639313,356.265106 183.038177,356.756927 
	C183.038177,370.881470 183.038177,384.784851 183.038177,398.671570 
	C186.528046,398.671570 189.437500,398.671570 192.914734,398.671570 
	C192.914734,384.443695 192.914734,370.537262 192.914734,356.460022 
	C195.858414,356.226929 198.245026,356.037933 200.587433,355.852448 
	C200.587433,352.711273 200.587433,350.134430 200.587433,347.719757 
	C191.189117,347.719757 182.144745,347.719757 172.470352,347.145660 
	C166.152496,347.107208 159.822327,347.293701 153.521301,346.948212 
	C149.577164,346.731934 148.839203,348.303253 148.883224,351.858948 
	C149.060272,366.159241 148.947006,380.463074 148.974197,394.765503 
	C148.976624,396.036346 149.218689,397.306702 149.364380,398.722229 
	C157.581879,398.722229 165.476532,398.722229 173.592590,398.722229 
	C173.592590,395.743500 173.592590,393.054779 173.592590,389.929932 
	C168.631012,389.929932 164.039810,389.929932 159.388275,389.929932 
	C159.388275,385.470306 159.388275,381.463165 159.388275,377.015015 
	C163.394135,377.015015 166.988647,377.015015 170.623047,377.015015 
	C170.623047,373.870728 170.623047,371.190582 170.623047,368.072418 
	C166.594406,368.072418 163.007050,368.072418 159.330261,368.072418 
	C159.330261,363.914154 159.330261,360.214691 159.330261,356.489410 
	C164.122589,356.210327 168.558472,355.951996 173.885574,355.432556 
M318.921997,292.488586 
	C324.863617,287.887787 326.977600,281.794800 326.245819,274.429291 
	C325.531372,267.238373 323.067688,260.806244 318.182861,255.495316 
	C313.563599,250.473129 308.819122,245.542557 303.843353,240.877151 
	C295.169006,232.743881 289.996582,222.742859 287.057739,211.377426 
	C285.894196,206.877548 284.730164,202.331131 283.005035,198.031097 
	C274.903503,177.837250 251.334183,170.123032 233.337997,181.757462 
	C223.585327,188.062546 219.001221,197.761353 217.056473,208.745819 
	C214.900742,220.922150 209.932480,231.514496 201.169968,240.296936 
	C197.523407,243.951752 193.576523,247.401077 190.476105,251.483063 
	C186.496262,256.722839 182.247070,262.114685 179.856445,268.133148 
	C174.305420,282.108185 180.326370,293.108673 194.622040,297.657104 
	C203.888428,300.605408 212.775589,298.449310 221.533508,295.914062 
	C223.179916,295.437469 224.828064,291.890137 224.927658,289.689758 
	C225.318939,281.045441 225.064362,272.373016 225.101288,263.711243 
	C225.140518,254.507629 229.161591,247.282242 236.657150,242.199982 
	C252.775986,231.270752 274.596436,241.585861 276.134247,261.023254 
	C276.841766,269.965820 276.541626,278.999969 276.442932,287.989777 
	C276.389496,292.856445 278.251709,295.487640 283.262268,295.883392 
	C286.233154,296.118073 289.248383,296.527710 292.104462,297.345093 
	C301.601776,300.063110 310.144836,297.665558 318.921997,292.488586 
M316.982452,136.327744 
	C302.686310,143.991455 294.091980,160.327377 295.971954,176.264038 
	C298.141052,194.651321 315.382080,202.879974 331.012939,193.098358 
	C344.052368,184.938385 350.006470,173.005936 349.915741,157.926788 
	C349.801331,138.901672 335.369720,129.178055 316.982452,136.327744 
M207.945099,177.140060 
	C208.807587,159.253510 200.763718,146.403397 185.196609,138.329178 
	C170.023285,130.459198 153.822922,138.932159 151.995972,155.274170 
	C150.265350,170.754547 160.324997,188.315414 174.621841,194.771576 
	C190.346756,201.872620 204.198547,194.895691 207.945099,177.140060 
M267.596283,140.072189 
	C278.567169,126.279266 279.508240,108.426399 270.046936,93.581779 
	C261.028656,79.432251 244.174316,77.736023 233.446762,89.898308 
	C222.441833,102.375069 222.506592,126.395775 233.578766,138.852814 
	C243.663284,150.198624 256.212921,150.853912 267.596283,140.072189 
M383.862671,381.872314 
	C382.756531,379.700958 381.650421,377.529633 380.474396,375.221069 
	C385.923553,371.333130 385.496277,365.535461 385.142975,359.850769 
	C384.689453,352.554199 379.606873,347.514313 372.317688,347.099182 
	C368.834778,346.900848 365.314117,347.259979 361.844299,346.967133 
	C358.097473,346.650848 356.970520,348.020294 357.019928,351.749420 
	C357.209473,366.054138 357.087494,380.362915 357.114166,394.670074 
	C357.116547,395.951050 357.351746,397.231598 357.501862,398.744354 
	C360.696045,398.744354 363.596771,398.744354 367.055267,398.744354 
	C367.055267,392.121704 367.055267,385.733887 367.055267,379.346069 
	C367.576996,379.013580 368.098694,378.681091 368.620422,378.348602 
	C370.452240,380.296173 373.082428,381.954926 373.917297,384.263092 
	C375.004059,387.267731 375.064362,390.815247 374.839844,394.079163 
	C374.556610,398.196686 376.160095,399.533752 379.994537,399.016479 
	C381.431091,398.822693 382.893158,398.818024 385.303101,398.667023 
	C384.853424,393.126373 384.430145,387.910767 383.862671,381.872314 
M308.318909,347.028381 
	C305.989227,347.028137 303.632690,347.252747 301.335663,346.978699 
	C297.155273,346.479919 295.938812,348.115906 296.008423,352.261871 
	C296.243011,366.236115 296.088348,380.216766 296.112671,394.194885 
	C296.115204,395.637360 296.319550,397.079529 296.466431,398.993195 
	C301.438110,398.993195 306.062561,399.095398 310.680939,398.970947 
	C319.139648,398.743042 323.933929,394.016479 324.111481,385.553894 
	C324.275513,377.736176 324.215088,369.912140 324.152985,362.091675 
	C324.070770,351.741211 319.778046,347.449890 308.318909,347.028381 
M291.125366,394.311371 
	C291.124878,383.158478 291.178406,372.005249 291.106506,360.852814 
	C291.050476,352.161713 285.080261,346.060577 276.932343,346.178345 
	C268.946777,346.293823 263.133209,352.315643 263.060883,360.708130 
	C262.987701,369.196991 263.043976,377.687012 263.043671,386.176514 
	C263.043549,390.282135 263.043671,394.387756 263.043671,398.583435 
	C266.753479,398.583435 269.772827,398.583435 273.108704,398.583435 
	C273.108704,396.345093 273.108459,394.529510 273.108765,392.713928 
	C273.110352,382.226898 273.009430,371.737823 273.214569,361.254791 
	C273.248840,359.504852 274.337646,357.553741 275.492981,356.152100 
	C275.984161,355.556213 278.592377,355.650970 279.033691,356.278748 
	C280.086517,357.776489 280.937134,359.770111 280.964417,361.577179 
	C281.132812,372.727539 281.089478,383.881897 281.021729,395.034363 
	C281.006470,397.543365 281.386017,399.513794 284.488190,398.969421 
	C287.078033,398.514923 291.476990,401.052917 291.125366,394.311371 
M117.096489,373.499969 
	C117.096497,379.324524 117.096222,385.149078 117.096558,390.973633 
	C117.097046,399.592621 117.097626,399.597076 125.943108,398.818481 
	C126.217445,398.794312 126.464577,398.460968 127.241089,397.895538 
	C127.241089,394.357239 127.241089,390.437347 127.241089,386.357758 
	C128.711105,386.250793 129.680115,386.154175 130.651443,386.113617 
	C140.236359,385.713501 145.021912,380.969696 145.230835,371.522034 
	C145.315414,367.697327 145.362411,363.860168 145.157486,360.043152 
	C144.749268,352.439911 139.672882,347.437714 132.042694,347.081818 
	C128.389191,346.911438 124.713005,347.191071 121.063576,346.980713 
	C117.968742,346.802338 116.986198,348.032623 117.049416,351.033325 
	C117.200119,358.186005 117.097061,365.344055 117.096489,373.499969 
M341.764618,356.192108 
	C345.520844,356.192108 349.277039,356.192108 353.085541,356.192108 
	C353.085541,352.742310 353.085541,350.032532 353.085541,347.265869 
	C344.853821,347.265869 337.078186,347.265869 329.054199,347.265869 
	C329.054199,364.546021 329.054199,381.585205 329.054199,399.004578 
	C336.528809,399.004578 343.666931,399.120361 350.792725,398.876404 
	C351.830017,398.840942 353.408905,397.227997 353.676727,396.094421 
	C354.104218,394.285187 353.641876,392.265717 353.535889,389.889343 
	C348.425568,389.889343 343.837067,389.889343 339.106995,389.889343 
	C339.106995,385.514893 339.106995,381.619598 339.106995,377.453552 
	C343.100708,377.270172 346.823975,377.099182 350.432556,376.933472 
	C351.581207,368.153137 351.581207,368.151886 343.843964,368.116516 
	C342.256134,368.109253 340.668213,368.115448 338.811951,368.115448 
	C338.811951,365.252441 338.556519,363.064148 338.893463,360.971222 
	C339.158691,359.323944 340.154419,357.794281 341.764618,356.192108 
M230.546936,347.030975 
	C227.470184,347.030975 224.393433,347.030975 221.290878,347.030975 
	C221.290878,364.758545 221.290878,381.628601 221.290878,398.547974 
	C224.647079,398.547974 227.657684,398.547974 231.093231,398.547974 
	C231.093231,391.516327 231.093231,384.936523 231.093231,377.768280 
	C234.897644,377.768280 238.275009,377.768280 241.612915,377.768280 
	C241.612915,374.587494 241.612915,372.015594 241.612915,369.226807 
	C237.891129,369.054382 234.505859,368.897522 231.317902,368.749817 
	C231.317902,364.336243 231.317902,360.428772 231.317902,355.989258 
	C235.887482,355.989258 240.124161,355.989258 244.396805,355.989258 
	C244.396805,352.733490 244.396805,350.043060 244.396805,347.030975 
	C239.803116,347.030975 235.663849,347.030975 230.546936,347.030975 
M257.969025,383.494629 
	C257.969025,371.551270 257.969025,359.607910 257.969025,347.465576 
	C254.339493,347.465576 251.326324,347.465576 248.331879,347.465576 
	C248.331879,364.800781 248.331879,381.699249 248.331879,398.675293 
	C251.616577,398.675293 254.521515,398.675293 257.277618,398.675293 
	C257.565430,398.059052 257.816833,397.768250 257.821503,397.473541 
	C257.889984,393.146637 257.925629,388.819183 257.969025,383.494629 
M272.050110,276.576324 
	C272.132507,275.754608 272.295410,274.931793 272.284302,274.111359 
	C272.210419,268.649261 268.909485,265.470032 263.600128,265.703400 
	C258.619965,265.922302 255.083069,269.468689 256.147583,274.527618 
	C256.720520,277.250366 259.155212,280.632690 261.613922,281.670624 
	C265.703644,283.397125 269.711060,281.732117 272.050110,276.576324 
z"/>
<path fill="#F3DEC9" opacity="1.000000" stroke="none" 
	d="
M318.627502,292.701691 
	C310.144836,297.665558 301.601776,300.063110 292.104462,297.345093 
	C289.248383,296.527710 286.233154,296.118073 283.262268,295.883392 
	C278.251709,295.487640 276.389496,292.856445 276.442932,287.989777 
	C276.541626,278.999969 276.841766,269.965820 276.134247,261.023254 
	C274.596436,241.585861 252.775986,231.270752 236.657150,242.199982 
	C229.161591,247.282242 225.140518,254.507629 225.101288,263.711243 
	C225.064362,272.373016 225.318939,281.045441 224.927658,289.689758 
	C224.828064,291.890137 223.179916,295.437469 221.533508,295.914062 
	C212.775589,298.449310 203.888428,300.605408 194.622040,297.657104 
	C180.326370,293.108673 174.305420,282.108185 179.856445,268.133148 
	C182.247070,262.114685 186.496262,256.722839 190.476105,251.483063 
	C193.576523,247.401077 197.523407,243.951752 201.169968,240.296936 
	C209.932480,231.514496 214.900742,220.922150 217.056473,208.745819 
	C219.001221,197.761353 223.585327,188.062546 233.337997,181.757462 
	C251.334183,170.123032 274.903503,177.837250 283.005035,198.031097 
	C284.730164,202.331131 285.894196,206.877548 287.057739,211.377426 
	C289.996582,222.742859 295.169006,232.743881 303.843353,240.877151 
	C308.819122,245.542557 313.563599,250.473129 318.182861,255.495316 
	C323.067688,260.806244 325.531372,267.238373 326.245819,274.429291 
	C326.977600,281.794800 324.863617,287.887787 318.627502,292.701691 
z"/>
<path fill="#F3DEC9" opacity="1.000000" stroke="none" 
	d="
M317.331726,136.174469 
	C335.369720,129.178055 349.801331,138.901672 349.915741,157.926788 
	C350.006470,173.005936 344.052368,184.938385 331.012939,193.098358 
	C315.382080,202.879974 298.141052,194.651321 295.971954,176.264038 
	C294.091980,160.327377 302.686310,143.991455 317.331726,136.174469 
z"/>
<path fill="#F3DDC9" opacity="1.000000" stroke="none" 
	d="
M207.908936,177.581818 
	C204.198547,194.895691 190.346756,201.872620 174.621841,194.771576 
	C160.324997,188.315414 150.265350,170.754547 151.995972,155.274170 
	C153.822922,138.932159 170.023285,130.459198 185.196609,138.329178 
	C200.763718,146.403397 208.807587,159.253510 207.908936,177.581818 
z"/>
<path fill="#F3DDC9" opacity="1.000000" stroke="none" 
	d="
M267.353577,140.337952 
	C256.212921,150.853912 243.663284,150.198624 233.578766,138.852814 
	C222.506592,126.395775 222.441833,102.375069 233.446762,89.898308 
	C244.174316,77.736023 261.028656,79.432251 270.046936,93.581779 
	C279.508240,108.426399 278.567169,126.279266 267.353577,140.337952 
z"/>
<path fill="#F1DBC7" opacity="1.000000" stroke="none" 
	d="
M383.934753,382.283752 
	C384.430145,387.910767 384.853424,393.126373 385.303101,398.667023 
	C382.893158,398.818024 381.431091,398.822693 379.994537,399.016479 
	C376.160095,399.533752 374.556610,398.196686 374.839844,394.079163 
	C375.064362,390.815247 375.004059,387.267731 373.917297,384.263092 
	C373.082428,381.954926 370.452240,380.296173 368.620422,378.348602 
	C368.098694,378.681091 367.576996,379.013580 367.055267,379.346069 
	C367.055267,385.733887 367.055267,392.121704 367.055267,398.744354 
	C363.596771,398.744354 360.696045,398.744354 357.501862,398.744354 
	C357.351746,397.231598 357.116547,395.951050 357.114166,394.670074 
	C357.087494,380.362915 357.209473,366.054138 357.019928,351.749420 
	C356.970520,348.020294 358.097473,346.650848 361.844299,346.967133 
	C365.314117,347.259979 368.834778,346.900848 372.317688,347.099182 
	C379.606873,347.514313 384.689453,352.554199 385.142975,359.850769 
	C385.496277,365.535461 385.923553,371.333130 380.474396,375.221069 
	C381.650421,377.529633 382.756531,379.700958 383.934753,382.283752 
M372.730225,356.743988 
	C371.021515,356.567169 369.312775,356.390320 367.517670,356.204559 
	C367.517670,361.471863 367.517670,366.147614 367.517670,372.255432 
	C370.545227,370.699585 374.328674,369.815277 374.505310,368.460571 
	C374.984619,364.785004 373.934692,360.909973 372.730225,356.743988 
z"/>
<path fill="#F1DCC8" opacity="1.000000" stroke="none" 
	d="
M308.783752,347.028931 
	C319.778046,347.449890 324.070770,351.741211 324.152985,362.091675 
	C324.215088,369.912140 324.275513,377.736176 324.111481,385.553894 
	C323.933929,394.016479 319.139648,398.743042 310.680939,398.970947 
	C306.062561,399.095398 301.438110,398.993195 296.466431,398.993195 
	C296.319550,397.079529 296.115204,395.637360 296.112671,394.194885 
	C296.088348,380.216766 296.243011,366.236115 296.008423,352.261871 
	C295.938812,348.115906 297.155273,346.479919 301.335663,346.978699 
	C303.632690,347.252747 305.989227,347.028137 308.783752,347.028931 
M306.129181,361.741516 
	C306.129181,371.019592 306.129181,380.297638 306.129181,389.512268 
	C312.807800,390.255341 314.071228,389.202087 314.110199,383.122833 
	C314.153931,376.306519 314.162048,369.489410 314.107086,362.673248 
	C314.060760,356.929382 312.949554,356.035156 306.389771,356.506653 
	C306.305023,357.906342 306.217194,359.357666 306.129181,361.741516 
z"/>
<path fill="#F1DCC8" opacity="1.000000" stroke="none" 
	d="
M291.124573,394.787659 
	C291.476990,401.052917 287.078033,398.514923 284.488190,398.969421 
	C281.386017,399.513794 281.006470,397.543365 281.021729,395.034363 
	C281.089478,383.881897 281.132812,372.727539 280.964417,361.577179 
	C280.937134,359.770111 280.086517,357.776489 279.033691,356.278748 
	C278.592377,355.650970 275.984161,355.556213 275.492981,356.152100 
	C274.337646,357.553741 273.248840,359.504852 273.214569,361.254791 
	C273.009430,371.737823 273.110352,382.226898 273.108765,392.713928 
	C273.108459,394.529510 273.108704,396.345093 273.108704,398.583435 
	C269.772827,398.583435 266.753479,398.583435 263.043671,398.583435 
	C263.043671,394.387756 263.043549,390.282135 263.043671,386.176514 
	C263.043976,377.687012 262.987701,369.196991 263.060883,360.708130 
	C263.133209,352.315643 268.946777,346.293823 276.932343,346.178345 
	C285.080261,346.060577 291.050476,352.161713 291.106506,360.852814 
	C291.178406,372.005249 291.124878,383.158478 291.124573,394.787659 
z"/>
<path fill="#F1DCC7" opacity="1.000000" stroke="none" 
	d="
M117.096489,372.999939 
	C117.097061,365.344055 117.200119,358.186005 117.049416,351.033325 
	C116.986198,348.032623 117.968742,346.802338 121.063576,346.980713 
	C124.713005,347.191071 128.389191,346.911438 132.042694,347.081818 
	C139.672882,347.437714 144.749268,352.439911 145.157486,360.043152 
	C145.362411,363.860168 145.315414,367.697327 145.230835,371.522034 
	C145.021912,380.969696 140.236359,385.713501 130.651443,386.113617 
	C129.680115,386.154175 128.711105,386.250793 127.241089,386.357758 
	C127.241089,390.437347 127.241089,394.357239 127.241089,397.895538 
	C126.464577,398.460968 126.217445,398.794312 125.943108,398.818481 
	C117.097626,399.597076 117.097046,399.592621 117.096558,390.973633 
	C117.096222,385.149078 117.096497,379.324524 117.096489,372.999939 
M135.154373,369.311768 
	C135.153549,366.998169 135.197296,364.683502 135.143005,362.371155 
	C135.015717,356.950714 133.501282,355.820709 127.420563,356.712799 
	C127.420563,363.372559 127.420563,370.061066 127.420563,376.723419 
	C134.073975,377.266022 134.871078,376.568787 135.154373,369.311768 
z"/>
<path fill="#F0DBC7" opacity="1.000000" stroke="none" 
	d="
M341.295135,356.202271 
	C340.154419,357.794281 339.158691,359.323944 338.893463,360.971222 
	C338.556519,363.064148 338.811951,365.252441 338.811951,368.115448 
	C340.668213,368.115448 342.256134,368.109253 343.843964,368.116516 
	C351.581207,368.151886 351.581207,368.153137 350.432556,376.933472 
	C346.823975,377.099182 343.100708,377.270172 339.106995,377.453552 
	C339.106995,381.619598 339.106995,385.514893 339.106995,389.889343 
	C343.837067,389.889343 348.425568,389.889343 353.535889,389.889343 
	C353.641876,392.265717 354.104218,394.285187 353.676727,396.094421 
	C353.408905,397.227997 351.830017,398.840942 350.792725,398.876404 
	C343.666931,399.120361 336.528809,399.004578 329.054199,399.004578 
	C329.054199,381.585205 329.054199,364.546021 329.054199,347.265869 
	C337.078186,347.265869 344.853821,347.265869 353.085541,347.265869 
	C353.085541,350.032532 353.085541,352.742310 353.085541,356.192108 
	C349.277039,356.192108 345.520844,356.192108 341.295135,356.202271 
z"/>
<path fill="#F2DDC8" opacity="1.000000" stroke="none" 
	d="
M172.994354,355.693665 
	C168.558472,355.951996 164.122589,356.210327 159.330261,356.489410 
	C159.330261,360.214691 159.330261,363.914154 159.330261,368.072418 
	C163.007050,368.072418 166.594406,368.072418 170.623047,368.072418 
	C170.623047,371.190582 170.623047,373.870728 170.623047,377.015015 
	C166.988647,377.015015 163.394135,377.015015 159.388275,377.015015 
	C159.388275,381.463165 159.388275,385.470306 159.388275,389.929932 
	C164.039810,389.929932 168.631012,389.929932 173.592590,389.929932 
	C173.592590,393.054779 173.592590,395.743500 173.592590,398.722229 
	C165.476532,398.722229 157.581879,398.722229 149.364380,398.722229 
	C149.218689,397.306702 148.976624,396.036346 148.974197,394.765503 
	C148.947006,380.463074 149.060272,366.159241 148.883224,351.858948 
	C148.839203,348.303253 149.577164,346.731934 153.521301,346.948212 
	C159.822327,347.293701 166.152496,347.107208 172.764786,347.881287 
	C173.037598,350.975861 173.015976,353.334747 172.994354,355.693665 
z"/>
<path fill="#F2DDC9" opacity="1.000000" stroke="none" 
	d="
M231.035767,347.030975 
	C235.663849,347.030975 239.803116,347.030975 244.396805,347.030975 
	C244.396805,350.043060 244.396805,352.733490 244.396805,355.989258 
	C240.124161,355.989258 235.887482,355.989258 231.317902,355.989258 
	C231.317902,360.428772 231.317902,364.336243 231.317902,368.749817 
	C234.505859,368.897522 237.891129,369.054382 241.612915,369.226807 
	C241.612915,372.015594 241.612915,374.587494 241.612915,377.768280 
	C238.275009,377.768280 234.897644,377.768280 231.093231,377.768280 
	C231.093231,384.936523 231.093231,391.516327 231.093231,398.547974 
	C227.657684,398.547974 224.647079,398.547974 221.290878,398.547974 
	C221.290878,381.628601 221.290878,364.758545 221.290878,347.030975 
	C224.393433,347.030975 227.470184,347.030975 231.035767,347.030975 
z"/>
<path fill="#F1DCC8" opacity="1.000000" stroke="none" 
	d="
M173.439972,355.563110 
	C173.015976,353.334747 173.037598,350.975861 173.079803,348.168335 
	C182.144745,347.719757 191.189117,347.719757 200.587433,347.719757 
	C200.587433,350.134430 200.587433,352.711273 200.587433,355.852448 
	C198.245026,356.037933 195.858414,356.226929 192.914734,356.460022 
	C192.914734,370.537262 192.914734,384.443695 192.914734,398.671570 
	C189.437500,398.671570 186.528046,398.671570 183.038177,398.671570 
	C183.038177,384.784851 183.038177,370.881470 183.038177,356.756927 
	C179.639313,356.265106 176.762436,355.848846 173.439972,355.563110 
z"/>
<path fill="#F2DDC9" opacity="1.000000" stroke="none" 
	d="
M257.969055,383.993256 
	C257.925629,388.819183 257.889984,393.146637 257.821503,397.473541 
	C257.816833,397.768250 257.565430,398.059052 257.277618,398.675293 
	C254.521515,398.675293 251.616577,398.675293 248.331879,398.675293 
	C248.331879,381.699249 248.331879,364.800781 248.331879,347.465576 
	C251.326324,347.465576 254.339493,347.465576 257.969025,347.465576 
	C257.969025,359.607910 257.969025,371.551270 257.969055,383.993256 
z"/>
<path fill="#F1DCC8" opacity="1.000000" stroke="none" 
	d="
M271.967194,276.939728 
	C269.711060,281.732117 265.703644,283.397125 261.613922,281.670624 
	C259.155212,280.632690 256.720520,277.250366 256.147583,274.527618 
	C255.083069,269.468689 258.619965,265.922302 263.600128,265.703400 
	C268.909485,265.470032 272.210419,268.649261 272.284302,274.111359 
	C272.295410,274.931793 272.132507,275.754608 271.967194,276.939728 
z"/>
<path fill="#4F344C" opacity="1.000000" stroke="none" 
	d="
M373.110657,356.929016 
	C373.934692,360.909973 374.984619,364.785004 374.505310,368.460571 
	C374.328674,369.815277 370.545227,370.699585 367.517670,372.255432 
	C367.517670,366.147614 367.517670,361.471863 367.517670,356.204559 
	C369.312775,356.390320 371.021515,356.567169 373.110657,356.929016 
z"/>
<path fill="#4D324A" opacity="1.000000" stroke="none" 
	d="
M306.129272,361.275238 
	C306.217194,359.357666 306.305023,357.906342 306.389771,356.506653 
	C312.949554,356.035156 314.060760,356.929382 314.107086,362.673248 
	C314.162048,369.489410 314.153931,376.306519 314.110199,383.122833 
	C314.071228,389.202087 312.807800,390.255341 306.129181,389.512268 
	C306.129181,380.297638 306.129181,371.019592 306.129272,361.275238 
z"/>
<path fill="#4E334B" opacity="1.000000" stroke="none" 
	d="
M135.153839,369.775513 
	C134.871078,376.568787 134.073975,377.266022 127.420563,376.723419 
	C127.420563,370.061066 127.420563,363.372559 127.420563,356.712799 
	C133.501282,355.820709 135.015717,356.950714 135.143005,362.371155 
	C135.197296,364.683502 135.153549,366.998169 135.153839,369.775513 
z"/>
</svg>